<?xml version="1.0" standalone="no"?>
<!DOCTYPE svg PUBLIC "-//W3C//DTD SVG 20010904//EN"
 "http://www.w3.org/TR/2001/REC-SVG-20010904/DTD/svg10.dtd">
<svg version="1.0" xmlns="http://www.w3.org/2000/svg"
 width="65.000000pt" height="65.000000pt" viewBox="0 0 65.000000 65.000000"
 preserveAspectRatio="xMidYMid meet">

<g transform="translate(0.000000,65.000000) scale(0.100000,-0.100000)"
fill="#000000" stroke="none">
<path d="M249 637 c-148 -42 -243 -163 -243 -313 -1 -176 142 -318 319 -318
126 0 230 66 287 182 27 55 32 76 32 136 0 126 -66 231 -177 286 -73 35 -153
45 -218 27z m181 -81 c0 -3 -4 -8 -10 -11 -5 -3 -10 -1 -10 4 0 6 5 11 10 11
6 0 10 -2 10 -4z m25 -16 c3 -5 1 -10 -4 -10 -6 0 -11 5 -11 10 0 6 2 10 4 10
3 0 8 -4 11 -10z m55 6 c0 -3 -4 -8 -10 -11 -5 -3 -10 -1 -10 4 0 6 5 11 10
11 6 0 10 -2 10 -4z m0 -30 c0 -2 -7 -7 -16 -10 -8 -3 -12 -2 -9 4 6 10 25 14
25 6z m-50 -21 c0 3 9 -4 20 -15 18 -18 20 -33 20 -157 l0 -138 -46 -19 -46
-19 -67 67 -67 66 -32 -23 c-17 -13 -29 -26 -26 -30 3 -3 -9 -4 -26 -3 -17 1
-36 9 -41 17 -5 8 -9 51 -9 97 0 78 1 83 25 94 21 9 28 8 45 -7 11 -10 20 -14
20 -9 0 5 7 -2 16 -14 8 -12 21 -22 27 -22 7 0 41 29 76 64 56 57 67 63 87 55
13 -4 24 -6 24 -4z m-335 -5 c-3 -5 -12 -10 -18 -10 -7 0 -6 4 3 10 19 12 23
12 15 0z m40 -288 c-3 -3 -11 0 -18 7 -9 10 -8 11 6 5 10 -3 15 -9 12 -12z"/>
<path d="M366 357 l-39 -33 42 -33 41 -33 0 66 c0 36 -1 66 -2 66 -2 0 -21
-15 -42 -33z"/>
<path d="M202 324 c-1 -15 2 -22 8 -19 12 7 13 32 2 39 -4 2 -9 -7 -10 -20z"/>
</g>
</svg>
