<?xml version="1.0" encoding="iso-8859-1"?>
<!-- Generator: Adobe Illustrator 19.0.0, SVG Export Plug-In . SVG Version: 6.00 Build 0)  -->
<svg version="1.1" id="Capa_1" xmlns="http://www.w3.org/2000/svg" xmlns:xlink="http://www.w3.org/1999/xlink" x="0px" y="0px"
	 viewBox="0 0 512 512" style="enable-background:new 0 0 512 512;" xml:space="preserve">
<g>
	<g>
		<path d="M488.503,340.887l-43.583-19.37c-3.078-1.368-5.067-4.429-5.067-7.797v-11.967c14.64-11.665,24.05-29.628,24.05-49.758
			v-16.847c4.823-2.665,8.016-7.815,8.016-13.583v-1.635c0-35.076-28.537-63.613-63.613-63.613h-16.032
			c-35.077,0-63.613,28.537-63.613,63.613v14.835c0,5.07,2.182,9.663,5.985,12.602c0.645,0.498,1.324,0.936,2.031,1.316v3.312
			c0,20.13,9.409,38.093,24.048,49.757v11.969c0,3.368-1.989,6.429-5.066,7.797l-43.583,19.37
			c-14.273,6.343-23.496,20.535-23.496,36.154v99.404c0,4.142,3.358,7.5,7.5,7.5c4.142,0,7.5-3.358,7.5-7.5v-99.405
			c0-0.869,0.062-1.728,0.152-2.58l20.082,20.082c3.125,3.125,4.847,7.281,4.847,11.702v70.2c0,4.142,3.358,7.5,7.5,7.5
			c4.142,0,7.5-3.358,7.5-7.5v-70.2c0-8.427-3.282-16.35-9.24-22.308l-23.942-23.942c2.157-2.238,4.745-4.093,7.689-5.402
			l42.847-19.043l31.775,31.775v109.119c0,4.142,3.358,7.5,7.5,7.5c4.142,0,7.5-3.358,7.5-7.5V367.326l31.775-31.775l42.846,19.043
			c2.944,1.309,5.533,3.164,7.69,5.403l-23.941,23.941c-5.958,5.958-9.24,13.881-9.24,22.308v70.2c0,4.142,3.358,7.5,7.5,7.5
			c4.142,0,7.5-3.358,7.5-7.5v-70.2c0-4.42,1.721-8.576,4.847-11.702l20.081-20.081c0.09,0.852,0.152,1.709,0.152,2.578v99.404
			c0,4.142,3.358,7.5,7.5,7.5c4.142,0,7.5-3.358,7.5-7.5v-99.404C511.999,361.422,502.776,347.23,488.503,340.887z M400.291,353.614
			l-27.882-27.882c2.12-3.567,3.317-7.693,3.317-12.011v-3.052c7.562,3.177,15.861,4.938,24.565,4.938
			c8.703,0,17.001-1.76,24.563-4.938v3.051c0,4.318,1.197,8.445,3.318,12.012L400.291,353.614z M400.29,300.606
			c-26.805,0.001-48.613-21.807-48.613-48.612v-3.374c4.68-1.855,9.248-4.806,13.621-8.842c3.043-2.809,3.234-7.554,0.424-10.598
			c-2.808-3.043-7.553-3.233-10.598-0.424c-3.751,3.462-7.499,5.7-11.137,6.649c-0.088,0.023-0.153,0.033-0.199,0.037
			c-0.054-0.104-0.127-0.325-0.127-0.678v-14.835c0-26.805,21.808-48.613,48.613-48.613h16.032
			c26.805,0,48.613,21.808,48.613,48.613v1.635c0,0.243-0.146,0.454-0.338,0.492c-44.915,8.869-67.438-7.848-75.037-15.447
			c-2.929-2.929-7.678-2.929-10.606,0c-2.929,2.929-2.929,7.678,0,10.606c23.289,23.289,57.274,23.709,77.965,21.224v13.554
			C448.903,278.798,427.095,300.606,400.29,300.606z"/>
	</g>
</g>
<g>
	<g>
		<path d="M231.952,212.429H215.92c-26.236,0-47.581,21.345-47.581,47.581v16.032c0,4.142,3.358,7.5,7.5,7.5
			c0.062,0,0.242-0.002,0.516-0.013v8.545c0,14.141,6.207,26.853,16.032,35.575v10.629c0,3.252-1.807,6.177-4.716,7.632
			l-41.973,20.986c-10.757,5.378-17.439,16.191-17.439,28.218v81.331c0,4.142,3.358,7.5,7.5,7.5c4.142,0,7.5-3.358,7.5-7.5v-81.331
			c0-1.452,0.194-2.867,0.548-4.224l11.669,11.67c3.126,3.125,4.847,7.281,4.847,11.701v62.184c0,4.142,3.358,7.5,7.5,7.5
			c4.142,0,7.5-3.358,7.5-7.5v-62.184c0-8.427-3.282-16.35-9.241-22.308l-12.319-12.319l40.616-20.308
			c1.329-0.665,2.565-1.449,3.719-2.322l18.338,18.338v101.103c0,4.142,3.358,7.5,7.5,7.5c4.142,0,7.5-3.358,7.5-7.5V375.342
			l18.338-18.338c1.153,0.873,2.39,1.658,3.719,2.322l7.168,3.584c1.077,0.539,2.221,0.793,3.348,0.793
			c2.751,0,5.4-1.52,6.714-4.147c1.853-3.705,0.351-8.21-3.354-10.062l-7.167-3.584c-2.91-1.455-4.717-4.379-4.717-7.632v-10.629
			c9.825-8.723,16.032-21.435,16.032-35.575v-8.537c0.173,0.001,0.342,0.005,0.516,0.005c4.142,0,7.5-3.358,7.5-7.5V260.01
			C279.532,233.774,258.188,212.429,231.952,212.429z M223.936,361.629l-17.331-17.331c0.506-1.934,0.783-3.951,0.783-6.019v-1.597
			c5.157,1.919,10.731,2.973,16.548,2.973s11.391-1.054,16.548-2.973v1.597c0,2.069,0.276,4.085,0.783,6.019L223.936,361.629z
			 M256.516,292.075c0,17.965-14.616,32.581-32.581,32.581c-17.965,0-32.581-14.616-32.581-32.581v-12.091
			c5.253-2.099,11.373-5.437,17.601-10.742c7.876,4.098,24.354,11.181,47.561,13.521V292.075z M264.533,268.341
			c-32.603-1.759-52.278-14.446-52.469-14.571c-1.269-0.846-2.717-1.26-4.158-1.26c-1.936,0-3.856,0.747-5.306,2.197
			c-7.176,7.175-14.206,10.63-19.261,12.293v-6.99h0c0-17.965,14.616-32.581,32.581-32.581h16.032
			c17.965,0,32.581,14.616,32.581,32.581V268.341z"/>
	</g>
</g>
<g>
	<g>
		<path d="M111.192,332.155v-16.032c0.001-21.816-17.747-39.565-39.563-39.565c-21.702,0-39.372,17.565-39.556,39.224
			c-0.001,0.027-0.001,0.055-0.002,0.082c-0.001,0.086-0.007,0.172-0.007,0.258v16.032c0,13.008,6.312,24.567,16.032,31.783v11.36
			c0,0.197-0.109,0.374-0.285,0.462l-34.803,17.402C4.984,397.173,0,405.238,0,414.209v62.236c0,4.142,3.358,7.5,7.5,7.5
			s7.5-3.358,7.5-7.5v-62.236c0-3.252,1.807-6.177,4.716-7.632l23.711-11.855l20.701,20.701v61.022c0,4.142,3.358,7.5,7.5,7.5
			c4.142,0,7.5-3.358,7.5-7.5v-61.022l20.702-20.702l0.497,0.249c1.077,0.539,2.221,0.793,3.348,0.793c2.751,0,5.4-1.52,6.714-4.147
			c1.852-3.705,0.351-8.21-3.354-10.062l-11.589-5.794c-0.176-0.088-0.286-0.265-0.286-0.462v-11.36
			C104.88,356.722,111.192,345.163,111.192,332.155z M71.629,291.558c13.545,0,24.564,11.02,24.564,24.564v0.366
			c-19.864-0.75-38.871-4.217-48.42-6.215C50.405,299.544,60.1,291.558,71.629,291.558z M71.629,401.71L57.31,387.39
			c3.63-2.904,5.787-7.302,5.787-12.093v-4.515c2.75,0.607,5.603,0.937,8.532,0.937c2.929,0,5.782-0.33,8.532-0.937v4.515
			c0,4.791,2.157,9.189,5.787,12.094L71.629,401.71z M71.629,356.72c-13.545,0-24.564-11.02-24.564-24.564v-6.697
			c10.725,2.171,29.381,5.356,49.129,6.043v0.654C96.193,345.7,85.174,356.72,71.629,356.72z"/>
	</g>
</g>
<g>
	<g>
		<path d="M39.564,428.865c-4.142,0-7.5,3.358-7.5,7.5v40.081c0,4.142,3.358,7.5,7.5,7.5c4.142,0,7.5-3.358,7.5-7.5v-40.081
			C47.064,432.223,43.707,428.865,39.564,428.865z"/>
	</g>
</g>
<g>
	<g>
		<path d="M511.436,41.051c-1.023-2.49-3.3-4.241-5.969-4.588l-64.087-8.344c-4.106-0.54-7.871,2.361-8.405,6.469
			c-0.535,4.107,2.361,7.871,6.469,8.405l36.137,4.705L6.068,240.49c-3.832,1.573-5.663,5.955-4.089,9.787
			c1.19,2.899,3.989,4.653,6.94,4.653c0.949,0,1.914-0.181,2.846-0.564L481.191,61.612l-22.332,28.657
			c-2.546,3.267-1.961,7.979,1.306,10.526c1.37,1.067,2.993,1.584,4.604,1.584c2.233,0,4.442-0.993,5.921-2.891l39.725-50.978
			C512.069,46.387,512.459,43.541,511.436,41.051z"/>
	</g>
</g>
<g>
</g>
<g>
</g>
<g>
</g>
<g>
</g>
<g>
</g>
<g>
</g>
<g>
</g>
<g>
</g>
<g>
</g>
<g>
</g>
<g>
</g>
<g>
</g>
<g>
</g>
<g>
</g>
<g>
</g>
</svg>
